<?xml version="1.0" encoding="UTF-8" standalone="no"?>
<svg
   width="88"
   height="88"
   viewBox="0 0 88 88"
   fill="none"
   version="1.1"
   id="svg4"
   sodipodi:docname="mail-icon-white.svg"
   inkscape:version="1.4.3 (0d15f75, 2025-12-25)"
   xmlns:inkscape="http://www.inkscape.org/namespaces/inkscape"
   xmlns:sodipodi="http://sodipodi.sourceforge.net/DTD/sodipodi-0.dtd"
   xmlns="http://www.w3.org/2000/svg"
   xmlns:svg="http://www.w3.org/2000/svg">
  <defs
     id="defs4" />
  <sodipodi:namedview
     id="namedview4"
     pagecolor="#505050"
     bordercolor="#eeeeee"
     borderopacity="1"
     inkscape:showpageshadow="0"
     inkscape:pageopacity="0"
     inkscape:pagecheckerboard="0"
     inkscape:deskcolor="#505050"
     inkscape:zoom="9.1704545"
     inkscape:cx="43.945477"
     inkscape:cy="44"
     inkscape:window-width="1920"
     inkscape:window-height="1009"
     inkscape:window-x="-8"
     inkscape:window-y="-8"
     inkscape:window-maximized="1"
     inkscape:current-layer="svg4" />
  <path
     d="m 16,26 c 0,-3.3137 2.6863,-6 6,-6 h 44 c 3.3137,0 6,2.6863 6,6 v 2.5 L 47.54,44.18 c -2.1791,1.3967 -4.964,1.3682 -7.114,-0.0728 L 16,27.74 Z"
     stroke="#55C9F7"
     stroke-width="3.5"
     stroke-linecap="round"
     stroke-linejoin="round"
     id="path1"
     style="stroke:#ffffff" />
  <path
     d="M 16,27.5 V 62 c 0,3.3137 2.6863,6 6,6 h 7"
     stroke="#55C9F7"
     stroke-width="3.5"
     stroke-linecap="round"
     stroke-linejoin="round"
     id="path2"
     style="stroke:#ffffff" />
  <path
     d="m 72.342451,42.86015 v 21.707146 c 0,2.084955 -2.827826,3.775155 -6.316108,3.775155 h -7.368794"
     stroke="#55c9f7"
     stroke-width="3.1346"
     stroke-linecap="round"
     stroke-linejoin="round"
     id="path3"
     style="stroke:#ffffff" />
  <path
     d="m 16.21052,27.492438 24.194788,16.621386 c 2.129648,1.442231 4.888187,1.470756 7.04666,0.07287 L 71.680434,28.493298"
     stroke="#55c9f7"
     stroke-width="3.4909"
     stroke-linecap="round"
     stroke-linejoin="round"
     id="path4"
     style="stroke:#ffffff" />
</svg>
