<svg xmlns="http://www.w3.org/2000/svg" viewBox="0 0 100 100" width="100" height="100" fill="none">
  <!-- Cornetta telefonica -->
  <path
    d="M28 22
       C24 22 20 25 20 29
       C20 55 45 80 71 80
       C75 80 78 77 78 73
       L78 63
       C78 61 77 59 75 58
       L65 54
       C63 53 61 54 60 55
       L56 59
       C50 56 44 50 41 44
       L45 40
       C46 39 47 37 46 35
       L42 25
       C41 23 39 22 37 22
       Z"
    stroke="#29CCEF"
    stroke-width="4"
    stroke-linecap="round"
    stroke-linejoin="round"
  />
  <!-- Onda piccola -->
  <path
    d="M62 32
       C64 29 64 25 62 22"
    stroke="#29CCEF"
    stroke-width="4"
    stroke-linecap="round"
    fill="none"
  />
  <!-- Onda grande -->
  <path
    d="M70 36
       C74 31 74 21 70 16"
    stroke="#29CCEF"
    stroke-width="4"
    stroke-linecap="round"
    fill="none"
  />
</svg>
