<?xml version="1.0" encoding="UTF-8"?>
<svg id="Layer_1" xmlns="http://www.w3.org/2000/svg" version="1.1" viewBox="0 0 300 300">
  <!-- Generator: Adobe Illustrator 30.2.1, SVG Export Plug-In . SVG Version: 2.1.1 Build 1)  -->
  <defs>
    <style>
      .st0 {
        fill: #124380;
      }
    </style>
  </defs>
  <path class="st0" d="M44.5,199.74v-2.47l1.56-2.19,43.46-20.53-43.4-20.5-1.62-2.12v-2.47l1.62-2.12,43.39-20.5-43.45-20.53-1.56-2.19v-2.47l1.73-2.09,101.4-47.81c1.31-.62,2.8-.76,4.03-.18l30.51,14.38c2.29,1.08,3.12,3.6,2.06,5.68-.98,1.91-3.29,2.83-5.48,1.81l-28.94-13.62-91.51,43.15,91.55,43.16,91.43-43.14-30.01-14.22c-2.17-1.25-2.73-3.78-1.6-5.7,1.13-1.93,3.39-2.55,5.56-1.53l37.4,17.63c1.61.76,2.52,2.33,2.48,3.91-.03,1.35-.88,2.93-2.34,3.62l-42.62,20.13,42.21,19.93c1.78.84,2.84,2.28,2.76,4.12-.07,1.58-1.1,2.94-2.75,3.72l-42.21,19.94,42.34,20c1.61.76,2.6,2.2,2.62,3.76.01,1.59-.81,3.12-2.51,3.92l-100.6,47.44c-1.68.79-3.04.61-4.68-.17l-101.09-47.67-1.73-2.09ZM73.77,157.86l41.09-19.04-15.64-7.43-40.76,19.24c5.36,2.74,10.09,4.95,15.31,7.23ZM123.78,181.43l92.18-42.62-15.53-7.41-91.42,43.12,14.78,6.92ZM99.29,169.99l40.69-19.25-15.32-7.35-41.23,19.09,15.86,7.51ZM149.95,193.81l91.2-43.04-15.35-7.42-92.33,42.68,16.48,7.78ZM200.42,179.11l-48.64,22.94c-1.39.52-2.53.52-3.9-.01l-48.65-22.95-40.86,19.32,91.49,43.16,91.45-43.15-40.87-19.32Z"/>
  <ellipse class="st0" cx="197.23" cy="77.56" rx="4.08" ry="4.09"/>
  <path class="st0" d="M180.54,209.58c2.19,1.11,2.91,3.43,2.19,5.28-.81,2.08-3.37,3.35-5.52,2.26l-8.33-4.22c-2.08-1.05-2.99-3.26-2.23-5.27.78-2.08,3.33-3.4,5.54-2.28l8.35,4.23Z"/>
  <path class="st0" d="M205.07,197.39c2.15,1.09,2.84,3.36,2.11,5.29-.71,1.89-3.26,3.33-5.38,2.26l-8.73-4.42c-2.09-1.06-2.76-3.6-1.74-5.6.91-1.77,3.32-2.82,5.4-1.77l8.33,4.24Z"/>
  <path class="st0" d="M129.53,209.16c2.2,1.11,2.94,3.4,2.2,5.29-.81,2.08-3.37,3.35-5.54,2.25l-8.34-4.23c-2.08-1.05-2.94-3.26-2.22-5.22.78-2.12,3.32-3.44,5.54-2.32l8.36,4.22Z"/>
  <path class="st0" d="M103.46,196.54c2.17,1.1,2.89,3.37,2.14,5.32-.74,1.92-3.28,3.32-5.42,2.24l-8.7-4.42c-2.08-1.06-2.71-3.59-1.72-5.56.9-1.77,3.31-2.85,5.37-1.8l8.33,4.23Z"/>
  <path class="st0" d="M156.01,221.8c2.32,1.18,3.1,3.62,2.03,5.74-.96,1.9-3.47,2.83-5.61,1.72l-8.38-4.33c-2.03-1.05-2.67-3.53-1.67-5.51.93-1.85,3.35-2.83,5.51-1.73l8.12,4.12Z"/>
</svg>