<?xml version="1.0" encoding="UTF-8"?>
<svg id="Layer_1" xmlns="http://www.w3.org/2000/svg" version="1.1" viewBox="0 0 300 300">
  <!-- Generator: Adobe Illustrator 30.2.1, SVG Export Plug-In . SVG Version: 2.1.1 Build 1)  -->
  <defs>
    <style>
      .st0 {
        stroke: #124380;
        stroke-miterlimit: 10;
        stroke-width: 1.42px;
      }

      .st0, .st1 {
        fill: #124380;
      }

      .st2 {
        fill: #fff;
      }
    </style>
  </defs>
  <g>
    <path class="st1" d="M184.21,241.82l-125.15.02c-7.52,0-13.43-5.93-13.43-13.4l-.02-75.83v-26.76l.03-22.94,16.1-68.5c1.3-5.54,4.76-9.65,10.63-10.93l98.19-.26c7.14-.48,13.38,3.94,14.62,11.06l11.94,68.64.35,22.89-.11,26.79-.02,75.84c0,7.08-5.52,13.37-13.11,13.37h-.02ZM143.79,23.19l-44.63.02M184.11,232.92c2.73,0,4.29-2.35,4.29-4.54l.02-124.31-11.93-67.78c-.54-3.05-2.9-4.61-5.96-4.08l-98.2,1.27c-.35,0-1.44,1.06-1.59,1.69l-16.21,68.94.02,124.28c0,2.6,1.93,4.55,4.54,4.55h125.02v-.02ZM45.62,143.68v-8.93M197.34,134.75v8.93"/>
    <path class="st1" d="M94.72,76.73h-17.89c-2.53,0-4.29-2.1-4.41-4.19-.13-2.38,1.68-4.72,4.41-4.72h17.89c2.54,0,4.29,2.09,4.4,4.19.13,2.37-1.67,4.72-4.4,4.72Z"/>
    <path class="st1" d="M166.12,76.73h-17.89c-2.53,0-4.29-2.1-4.41-4.19-.13-2.38,1.68-4.72,4.41-4.72h17.89c2.54,0,4.29,2.09,4.4,4.19.13,2.37-1.67,4.72-4.4,4.72Z"/>
  </g>
  <polygon class="st2" points="130.76 277.24 248.61 277.24 235.52 156.77 151.71 156.77 130.76 277.24"/>
  <path class="st0" d="M249.9,276.66h-117.75c-1.5,0-2.47-1.18-2.2-2.68l21.53-119.97c.31-1.11.99-1.85,2.21-1.85h84.71c1.11,0,2,.75,2.11,1.87l11.53,120.22c.12,1.28-.64,2.41-2.14,2.41ZM237.8,169.28l-1.26-12.99h-80.68l1.26,12.99h80.68,0ZM162.82,272.45l-9.89-102.54-18.5,102.62,28.39-.08ZM247.69,272.49l-9.49-99.05h-80.69l9.49,99.05h80.69Z"/>
</svg>