<?xml version="1.0" encoding="UTF-8"?>
<svg id="Layer_1" xmlns="http://www.w3.org/2000/svg" version="1.1" viewBox="0 0 300 300">
  <!-- Generator: Adobe Illustrator 30.2.1, SVG Export Plug-In . SVG Version: 2.1.1 Build 1)  -->
  <defs>
    <style>
      .st0 {
        stroke: #124380;
        stroke-miterlimit: 10;
        stroke-width: 1.42px;
      }

      .st0, .st1 {
        fill: #124380;
      }
    </style>
  </defs>
  <path class="st1" d="M263.46,240.67c1.07,1.07,1.97,2.38,1.99,3.46.03,1.46-.75,2.79-1.83,3.86l-16.83,16.72c-1.72,1.71-4.53,1.13-5.88-.34-1.52-1.66-1.56-4.16.12-5.89l9.56-9.81H55.68c-1.64,0-3.84-1.59-3.84-3.39l-.03-195.3-9.78,9.48c-1.72,1.67-4.25,1.64-5.89.15-1.71-1.56-1.94-4.32-.12-6.14l16.24-16.3c1.05-1.06,2.31-2.08,3.57-2.12,1.47-.05,2.78.77,3.85,1.84l16.49,16.56c1.71,1.72,1.61,4.31.14,5.91-1.49,1.62-4.03,1.9-5.88.36l-10.05-9.82v190.22h190.22l-9.56-9.82c-1.72-1.66-1.63-4.24-.15-5.86,1.55-1.7,4.34-1.94,6.17-.12l16.41,16.34h-.01Z"/>
  <path class="st0" d="M207.07,178.18l-4.27-64.36c-1.21-18.27-11.53-34.48-29.12-40.71,1.3-1.57,1.67-3.24,1.24-5.06-.38-1.6-1.43-3.06-3.41-3.97l5.69-13.26c.25-.57.14-1.57-.14-2.07-.28-.52-1.16-1.12-1.95-1.12h-32.06c-.72,0-1.56.49-1.85.9-.4.55-.55,1.7-.27,2.35l5.66,13.2c-1.88.92-2.95,2.33-3.34,3.77-.52,1.96-.15,3.61,1.18,5.3-17.81,6.29-27.9,22.68-29.12,40.94l-4.26,63.96c-.48,7.2,5.98,16.22,13.95,16.22h68.17c7.76-1.39,14.47-7.69,13.91-16.08h0ZM146.5,52.22l25.09-.03-4.87,11.45-15.3.02-4.91-11.44h0ZM170.48,68.24v2.29h-22.86v-2.29h22.86ZM191.31,189.65l-64.3.02c-6.27,0-11.78-5.1-11.36-11.47l4.21-64.04c1.42-21.59,17.52-38.96,39.07-39.04,21.68-.08,37.91,17.34,39.34,39.04l4.21,64.04c.41,6.18-4.87,11.45-11.18,11.45h.01Z"/>
</svg>