<?xml version="1.0" encoding="UTF-8"?>
<svg id="Layer_1" xmlns="http://www.w3.org/2000/svg" version="1.1" viewBox="0 0 72 36" width="72" height="36">
  <g>
    <g>
      <!-- TECNO lettere -->
      <g>
        <!-- C -->
        <path fill="#124380" d="M42.51,30.03v-1.56h-10.79c-.51,0-.93.42-.93.93v5.08c0,.51.42.93.93.93h10.79v-1.56h-9.89c-.15,0-.26-.12-.26-.26v-3.29c0-.15.12-.26.26-.26h9.89Z"/>
        <!-- T -->
        <polygon fill="#124380" points="12.45 28.46 .73 28.46 .73 30.03 5.81 30.03 5.81 35.4 7.38 35.4 7.37 30.03 12.45 30.03 12.45 28.46"/>
        <!-- N -->
        <path fill="#124380" d="M55.08,30.03c.15,0,.26.12.26.26v5.11h1.56v-6.01c0-.51-.42-.93-.93-.93h-9.86c-.51,0-.93.42-.93.93v6.01h1.56v-5.11c0-.15.12-.26.26-.26h8.07Z"/>
        <!-- O -->
        <path fill="#124380" d="M59.71,29.39v5.08c0,.51.42.93.93.93h9.87c.51,0,.93-.41.93-.92v-5.08c0-.51-.42-.93-.93-.93h-9.87c-.52,0-.93.41-.93.92ZM61.27,30.28c0-.11.07-.21.17-.25h.04s8.13,0,8.13,0c.15,0,.26.12.26.26v3.29c0,.11-.07.21-.17.25h-.02s-8.15,0-8.15,0c-.15,0-.26-.12-.26-.26v-3.29Z"/>
        <!-- E -->
        <polygon fill="#124380" points="27.98 30.03 27.98 28.46 16.26 28.46 16.26 35.4 27.98 35.4 27.98 33.84 17.83 33.84 17.83 32.72 27.98 32.72 27.98 31.15 17.83 31.15 17.83 30.03 27.98 30.03"/>
      </g>
      <!-- MF grafico -->
      <path fill="#124380" d="M.73,24.16V.38h29.02s5.79.23,9.02,8.71l4.7,10.51v-8.35s-.54-9.53,11.28-10.74h16.69s0,6.45,0,6.45h-13.76c-3.44,0-4.79,1.86-4.79,1.86h11.42v6.99h-11.42v8.35h-15.51s-6.6-12.9-8.04-15.2c-1.72-2.74-5.86-2.13-5.86-2.13v17.33h-8.63V7.23h-5.51v16.93H.73Z"/>
    </g>
  </g>
</svg>