<?xml version="1.0" encoding="UTF-8"?>
<svg id="Layer_1" xmlns="http://www.w3.org/2000/svg" version="1.1" viewBox="0 0 149 51.41">
  <!-- Generator: Adobe Illustrator 30.2.1, SVG Export Plug-In . SVG Version: 2.1.1 Build 1)  -->
  <defs>
    <style>
      .st0 {
        fill: #fff;
      }
    </style>
  </defs>
  <g>
    <g>
      <g>
        <path class="st0" d="M42.51,30.03v-1.56h-10.79c-.51,0-.93.42-.93.93v5.08c0,.51.42.93.93.93h10.79v-1.56h-9.89c-.15,0-.26-.12-.26-.26v-3.29c0-.15.12-.26.26-.26h9.89Z"/>
        <polygon class="st0" points="12.45 28.46 .73 28.46 .73 30.03 5.81 30.03 5.81 35.4 7.38 35.4 7.37 30.03 12.45 30.03 12.45 28.46"/>
        <path class="st0" d="M55.08,30.03c.15,0,.26.12.26.26v5.11h1.56v-6.01c0-.51-.42-.93-.93-.93h-9.86c-.51,0-.93.42-.93.93v6.01h1.56v-5.11c0-.15.12-.26.26-.26h8.07Z"/>
        <path class="st0" d="M59.71,29.39v5.08c0,.51.42.93.93.93h9.87c.51,0,.93-.41.93-.92v-5.08c0-.51-.42-.93-.93-.93h-9.87c-.52,0-.93.41-.93.92ZM61.27,30.28c0-.11.07-.21.17-.25h.04s8.13,0,8.13,0c.15,0,.26.12.26.26v3.29c0,.11-.07.21-.17.25h-.02s-8.15,0-8.15,0c-.15,0-.26-.12-.26-.26v-3.29Z"/>
        <polygon class="st0" points="27.98 30.03 27.98 28.46 16.26 28.46 16.26 35.4 27.98 35.4 27.98 33.84 17.83 33.84 17.83 32.72 27.98 32.72 27.98 31.15 17.83 31.15 17.83 30.03 27.98 30.03"/>
      </g>
      <path class="st0" d="M.73,24.16V.38h29.02s5.79.23,9.02,8.71l4.7,10.51v-8.35s-.54-9.53,11.28-10.74h16.69s0,6.45,0,6.45h-13.76c-3.44,0-4.79,1.86-4.79,1.86h11.42v6.99h-11.42v8.35h-15.51s-6.6-12.9-8.04-15.2c-1.72-2.74-5.86-2.13-5.86-2.13v17.33h-8.63V7.23h-5.51v16.93H.73Z"/>
    </g>
    <g>
      <g>
        <path class="st0" d="M79.33,9.46c0-.83.43-1.09,1.06-1.09h3.6c1.55,0,1.84,1.09,1.84,2.33s-.29,2.35-1.84,2.35h-3.29v2.57h-1.37v-6.16ZM83.32,11.97c.93,0,1.11-.43,1.11-1.26s-.18-1.24-1.11-1.24h-2.1c-.41,0-.52.1-.52.52v1.99h2.62Z"/>
        <path class="st0" d="M89.13,9.11c.26-.61.54-.82,1.19-.82s.93.21,1.19.82l2.73,6.51h-1.44l-.75-1.83h-3.49l-.74,1.83h-1.44l2.73-6.51ZM88.92,12.82h2.79l-1.18-2.95c-.04-.11-.11-.3-.21-.3s-.17.19-.21.3l-1.19,2.95Z"/>
        <path class="st0" d="M98.61,15.62c-2.48,0-3.08-1.55-3.08-3.62s.59-3.62,3.08-3.62h2.91v1.09h-2.27c-1.76,0-2.31.57-2.31,2.54s.55,2.54,2.31,2.54h2.38v1.09h-3.02Z"/>
        <path class="st0" d="M103.6,8.38h1.37v7.25h-1.37v-7.25ZM108.78,15.62l-3.03-2.76c-.31-.28-.37-.61-.37-.96,0-.28.16-.61.35-.81l2.74-2.71h1.7l-3.14,2.97c-.17.17-.34.29-.34.54,0,.3.22.49.43.66l3.43,3.07h-1.76Z"/>
        <path class="st0" d="M113.94,9.11c.26-.61.54-.82,1.19-.82s.93.21,1.19.82l2.73,6.51h-1.44l-.75-1.83h-3.49l-.74,1.83h-1.44l2.73-6.51ZM113.73,12.82h2.78l-1.18-2.95c-.04-.11-.11-.3-.21-.3s-.17.19-.21.3l-1.19,2.95Z"/>
        <path class="st0" d="M124.05,9.46c-1.76,0-2.31.57-2.31,2.54s.55,2.54,2.31,2.54h1.1c.41,0,.52-.1.52-.52v-1.95h1.37v2.46c0,.83-.43,1.09-1.06,1.09h-2.57c-2.48,0-3.07-1.55-3.07-3.62s.59-3.62,3.07-3.62h3.46v1.09h-2.82Z"/>
        <path class="st0" d="M129.11,15.62v-7.25h1.37v7.25h-1.37Z"/>
        <path class="st0" d="M139.69,14.68c0,.73-.49,1.02-1.08,1.02-.45,0-.85-.1-1.17-.61l-3.05-4.82c-.11-.16-.13-.18-.17-.18-.05,0-.15.05-.15.21v5.32h-1.33v-6.35c0-.62.41-.98,1.11-.98.65,0,.95.25,1.15.57l3.07,4.86c.05.07.07.18.17.18.11,0,.11-.12.11-.18v-5.34h1.33v6.31Z"/>
        <path class="st0" d="M145.48,9.46c-1.76,0-2.31.57-2.31,2.54s.55,2.54,2.31,2.54h1.1c.41,0,.52-.1.52-.52v-1.95h1.37v2.46c0,.83-.43,1.09-1.06,1.09h-2.57c-2.48,0-3.07-1.55-3.07-3.62s.59-3.62,3.07-3.62h3.46v1.09h-2.82Z"/>
      </g>
      <g>
        <path class="st0" d="M79.55,26.32h4.02c.65,0,.68-.54.68-.79,0-.28-.07-.62-.7-.82l-2.86-.9c-.95-.3-1.23-.91-1.23-1.9s.51-1.75,1.66-1.75h4.17v1.09h-3.81c-.34,0-.61.21-.61.72,0,.32.05.63.63.82l2.65.84c1.06.33,1.51.78,1.51,1.92,0,1.07-.43,1.86-1.55,1.86h-4.56v-1.09Z"/>
        <path class="st0" d="M92.62,20.15h1.47l-3.06,5.03v2.22h-1.37v-2.22l-3.06-5.03h1.47l2.28,3.8,2.28-3.8Z"/>
        <path class="st0" d="M95.43,26.32h4.02c.65,0,.68-.54.68-.79,0-.28-.07-.62-.7-.82l-2.86-.9c-.95-.3-1.23-.91-1.23-1.9s.51-1.75,1.66-1.75h4.17v1.09h-3.81c-.34,0-.61.21-.61.72,0,.32.05.63.63.82l2.65.84c1.06.33,1.51.78,1.51,1.92,0,1.07-.43,1.86-1.55,1.86h-4.56v-1.09Z"/>
        <path class="st0" d="M105.61,27.4v-6.16h-2.83v-1.09h7.03v1.09h-2.84v6.16h-1.37Z"/>
        <path class="st0" d="M117.28,27.4h-4.75c-.62,0-1.06-.26-1.06-1.09v-5.07c0-.83.43-1.09,1.06-1.09h4.71v1.09h-3.88c-.41,0-.52.1-.52.52v1.4h4.3v1.09h-4.3v1.55c0,.41.1.52.52.52h3.92v1.09Z"/>
        <path class="st0" d="M124.8,26.62c-.22.56-.41.87-1.04.87s-.82-.31-1.03-.87l-1.85-4.83c-.03-.08-.1-.24-.18-.24-.11,0-.11.19-.11.22l.03,5.64h-1.37v-6.38c0-.66.45-.95,1.17-.95.83,0,1.08.42,1.27.93l1.87,4.83c.07.16.12.27.2.27s.12-.11.2-.27l1.87-4.83c.2-.51.45-.93,1.27-.93.73,0,1.17.29,1.17.95v6.38h-1.37l.04-5.64c0-.2-.08-.22-.12-.22-.07,0-.15.16-.18.24l-1.85,4.83Z"/>
        <path class="st0" d="M130.34,26.32h4.02c.65,0,.68-.54.68-.79,0-.28-.07-.62-.7-.82l-2.86-.9c-.95-.3-1.23-.91-1.23-1.9s.51-1.75,1.66-1.75h4.17v1.09h-3.81c-.34,0-.61.21-.61.72,0,.32.05.63.63.82l2.65.84c1.06.33,1.51.78,1.51,1.92,0,1.07-.43,1.86-1.55,1.86h-4.56v-1.09Z"/>
      </g>
    </g>
  </g>
  <g>
    <path class="st0" d="M49.13,46.49h.64l1.68,4.17h-.52l-.52-1.31h-1.96l-.52,1.31h-.49l1.7-4.17ZM49.43,46.87c-.22.57-.5,1.22-.67,1.67l-.16.4h1.65l-.17-.45c-.2-.54-.43-1.06-.63-1.62h-.01Z"/>
    <path class="st0" d="M54.42,46.49h1.17l.75,2.21c.09.29.23.75.34,1.09h0c.12-.34.29-.86.38-1.13l.74-2.17h1.13v4.17h-.73v-2.12c0-.44.01-1.1.01-1.43h0c-.06.22-.26.8-.44,1.38l-.73,2.17h-.73l-.87-2.61c-.13-.4-.2-.69-.29-.97h0c0,.34.01.82.01,1.4v2.18h-.72v-4.17Z"/>
    <path class="st0" d="M59.97,50.66c.33-.75.6-1.49,1.72-4.17h.8l1.69,4.17h-.77c-.16-.4-.31-.8-.47-1.2h-1.75l-.47,1.2h-.76ZM62.07,47.16c-.18.46-.34.93-.52,1.38l-.1.29h1.26s-.02-.07-.04-.11l-.07-.18-.2-.54c-.11-.3-.23-.63-.3-.84h-.01Z"/>
    <path class="st0" d="M65.63,49.47c.09.4.4.65.89.65s.75-.26.75-.63-.3-.48-.76-.61l-.27-.08c-.73-.2-1.18-.55-1.18-1.22s.61-1.19,1.45-1.19,1.38.47,1.44,1.17h-.71c-.09-.33-.31-.53-.75-.53s-.65.22-.65.51c0,.36.29.46.73.6l.29.09c.74.23,1.18.47,1.18,1.21s-.64,1.3-1.54,1.3-1.53-.5-1.58-1.27h.72Z"/>
    <path class="st0" d="M69.76,49.47c.09.4.4.65.89.65s.75-.26.75-.63-.3-.48-.76-.61l-.27-.08c-.73-.2-1.18-.55-1.18-1.22s.61-1.19,1.45-1.19,1.38.47,1.44,1.17h-.71c-.09-.33-.31-.53-.75-.53s-.65.22-.65.51c0,.36.29.46.73.6l.29.09c.74.23,1.18.47,1.18,1.21s-.64,1.3-1.54,1.3-1.53-.5-1.58-1.27h.72Z"/>
    <path class="st0" d="M73.48,46.49h.74v4.17h-.74v-4.17Z"/>
    <path class="st0" d="M75.79,46.49h.91l1.39,2.39c.14.24.34.58.46.77h0c0-.24,0-.71,0-1.11v-2.06h.71v4.17h-.88l-1.34-2.29c-.25-.44-.45-.76-.51-.87h0c0,.23,0,.98,0,1.35v1.81h-.72v-4.17Z"/>
    <path class="st0" d="M80.83,46.49h.74v4.17h-.74v-4.17Z"/>
    <path class="st0" d="M85.17,46.49h.74v4.17h-.74v-4.17Z"/>
    <path class="st0" d="M87.48,46.49h.91l1.39,2.39c.14.24.34.58.46.77h0c0-.24,0-.71,0-1.11v-2.06h.71v4.17h-.88l-1.34-2.29c-.25-.44-.45-.76-.51-.87h0c0,.23,0,.98,0,1.35v1.81h-.72v-4.17Z"/>
    <path class="st0" d="M92.52,46.49h.91c.59,0,1.24.02,1.72.33.54.34.86,1,.86,1.77,0,.69-.28,1.28-.73,1.64-.49.4-1.05.43-1.81.43h-.95v-4.17ZM93.26,50.02h.41c1,0,1.58-.36,1.58-1.43,0-.95-.57-1.44-1.5-1.44-.18,0-.33,0-.48,0v2.87Z"/>
    <path class="st0" d="M97.57,50.19c-.23-.3-.28-.65-.28-1.14v-2.56h.74v2.52c0,.3.01.52.1.7.12.23.38.4.7.4s.58-.16.7-.4c.09-.18.1-.4.1-.7v-2.52h.74v2.56c0,.48-.05.83-.28,1.14-.25.36-.75.56-1.27.56s-1.01-.21-1.26-.56Z"/>
    <path class="st0" d="M102.33,49.47c.09.4.4.65.89.65s.75-.26.75-.63-.3-.48-.76-.61l-.27-.08c-.73-.2-1.18-.55-1.18-1.22s.61-1.19,1.45-1.19,1.38.47,1.44,1.17h-.71c-.09-.33-.32-.53-.75-.53s-.65.22-.65.51c0,.36.29.46.73.6l.29.09c.74.23,1.18.47,1.18,1.21s-.63,1.3-1.54,1.3-1.53-.5-1.58-1.27h.72Z"/>
    <path class="st0" d="M106.76,47.15h-1.04v-.66h2.83v.66h-1.04v3.51h-.74v-3.51Z"/>
    <path class="st0" d="M109.83,46.49h1.38c.42,0,.79.04,1.1.24.33.22.5.56.5.99,0,.75-.48,1.1-1,1.23l1.04,1.71h-.84l-.96-1.62h-.47v1.62h-.74v-4.17ZM110.57,48.41h.61c.54,0,.89-.18.89-.65s-.34-.64-.89-.64h-.61v1.28Z"/>
    <path class="st0" d="M114.12,46.49h.74v4.17h-.74v-4.17Z"/>
    <path class="st0" d="M116.44,46.49h2.56v.66h-1.83v1.06h1.68v.65h-1.68v1.15h1.87v.65h-2.6v-4.17Z"/>
    <path class="st0" d="M120.81,49.47c.09.4.4.65.89.65s.75-.26.75-.63-.3-.48-.76-.61l-.27-.08c-.73-.2-1.18-.55-1.18-1.22s.61-1.19,1.45-1.19,1.38.47,1.44,1.17h-.71c-.09-.33-.32-.53-.75-.53s-.65.22-.65.51c0,.36.29.46.73.6l.29.09c.74.23,1.18.47,1.18,1.21s-.63,1.3-1.54,1.3-1.53-.5-1.58-1.27h.72Z"/>
    <path class="st0" d="M126.64,46.49h1.19c.44,0,.76.05,1.01.16.34.16.53.42.53.86,0,.59-.35.84-.63.95.38.11.81.37.81,1.01,0,.5-.21.79-.54.97-.32.17-.7.22-1.15.22h-1.22v-4.17ZM127.13,48.3h.76c.61,0,.93-.18.93-.71,0-.32-.13-.48-.34-.58-.2-.09-.46-.11-.78-.11h-.56v1.39ZM127.13,50.23h.95c.26,0,.51-.05.68-.19.16-.12.24-.31.24-.57,0-.57-.42-.75-1.05-.75h-.82v1.51Z"/>
    <path class="st0" d="M130.94,46.49h1.18c.42,0,.8.03,1.08.23.32.2.48.53.48.95,0,.72-.51,1.07-1.06,1.16.33.56.76,1.26,1.11,1.82h-.6l-1.03-1.75h-.67v1.75h-.5v-4.17ZM131.44,48.5h.68c.32,0,.57-.06.73-.17.19-.13.3-.33.3-.62,0-.34-.13-.55-.38-.67-.16-.08-.37-.12-.65-.12h-.68v1.59Z"/>
    <path class="st0" d="M136.22,46.49h.64l1.68,4.17h-.53l-.52-1.31h-1.96l-.52,1.31h-.49l1.7-4.17ZM136.52,46.87c-.21.57-.5,1.22-.67,1.67l-.16.4h1.65l-.17-.45c-.2-.54-.43-1.06-.63-1.62h-.01Z"/>
    <path class="st0" d="M142.16,50.66l-1.39-2.5c-.23-.44-.55-.98-.61-1.14h-.01c0,.23,0,1.21,0,1.58v2.05h-.5v-4.17h.75l1.42,2.57.57,1.05h.01c0-.23-.02-.82-.02-1.22v-2.41h.48v4.17h-.72Z"/>
    <path class="st0" d="M144.54,46.49h1.06c.58,0,.92.08,1.24.23.68.32,1.06.95,1.06,1.87,0,.68-.23,1.26-.71,1.64-.35.27-.76.44-1.51.44h-1.15v-4.17ZM145.03,50.23h.53c1.15,0,1.79-.43,1.79-1.66,0-1.1-.62-1.67-1.73-1.67-.2,0-.4,0-.59,0v3.32Z"/>
  </g>
  <rect class="st0" x="30.79" y="41.75" width="116.82" height=".39"/>
</svg>